<svg width="33" height="34" viewBox="0 0 33 34" fill="none" xmlns="http://www.w3.org/2000/svg">
<path d="M11.6904 20.2104C11.6904 21.9414 13.0176 23.337 14.6665 23.337H18.0314C19.4658 23.337 20.6321 22.1159 20.6321 20.6129C20.6321 18.9758 19.9216 18.3988 18.8625 18.0231L13.46 16.1445C12.4009 15.7687 11.6904 15.1917 11.6904 13.5546C11.6904 12.0517 12.8567 10.8306 14.2912 10.8306H17.656C19.3049 10.8306 20.6321 12.2261 20.6321 13.9572" stroke="#9FA324" stroke-width="2" stroke-linecap="round" stroke-linejoin="round"/>
<path d="M16.1521 9.03271V25.1354" stroke="#9FA324" stroke-width="2" stroke-linecap="round" stroke-linejoin="round"/>
<path d="M16.1521 30.503C23.556 30.503 29.5579 24.4951 29.5579 17.0841C29.5579 9.67301 23.556 3.66516 16.1521 3.66516C8.74832 3.66516 2.74634 9.67301 2.74634 17.0841C2.74634 24.4951 8.74832 30.503 16.1521 30.503Z" stroke="#9FA324" stroke-width="2" stroke-linecap="round" stroke-linejoin="round"/>
</svg>
