<svg width="16" height="14" viewBox="0 0 16 14" fill="none" xmlns="http://www.w3.org/2000/svg">
<path d="M13.4316 0.522827L12.4444 0.522827L8.55551 0.522827L7.56835 0.522827C6.28203 0.522827 5.48058 1.91818 6.12871 3.02928L9.06032 8.05489C9.70345 9.1574 11.2965 9.1574 11.9396 8.05489L14.8712 3.02928C15.5193 1.91818 14.7179 0.522828 13.4316 0.522827Z" fill="#9FA324"/>
<path opacity="0.4" d="M2.16927 13.0485L3.15643 13.0485L7.04532 13.0485L8.03248 13.0485C9.3188 13.0485 10.1203 11.6531 9.47212 10.542L6.54051 5.5164C5.89738 4.41389 4.30438 4.41389 3.66125 5.5164L0.729641 10.542C0.081503 11.6531 0.882955 13.0485 2.16927 13.0485Z" fill="#9FA324"/>
</svg>
