<svg width="32" height="32" viewBox="0 0 32 32" fill="none" xmlns="http://www.w3.org/2000/svg">
<path d="M7.99996 5.33329H24C26.9455 5.33329 29.3333 7.72111 29.3333 10.6666V17.3333C29.3333 20.2788 26.9455 22.6666 24 22.6666H13.3333C10.3878 22.6666 7.99996 20.2788 7.99996 17.3333V5.33329ZM7.99996 5.33329C7.99996 3.86053 6.80605 2.66663 5.33329 2.66663H2.66663" stroke="#9FA324" stroke-width="2" stroke-linecap="round" stroke-linejoin="round"/>
<path d="M14.6666 27.3334C14.6666 28.4379 13.7712 29.3334 12.6666 29.3334C11.5621 29.3334 10.6666 28.4379 10.6666 27.3334C10.6666 26.2288 11.5621 25.3334 12.6666 25.3334C13.7712 25.3334 14.6666 26.2288 14.6666 27.3334Z" stroke="#9FA324" stroke-width="2"/>
<path d="M26.6666 27.3334C26.6666 28.4379 25.7712 29.3334 24.6666 29.3334C23.5621 29.3334 22.6666 28.4379 22.6666 27.3334C22.6666 26.2288 23.5621 25.3334 24.6666 25.3334C25.7712 25.3334 26.6666 26.2288 26.6666 27.3334Z" stroke="#9FA324" stroke-width="2"/>
<path d="M14.6666 16C17.8082 17.7871 19.5301 17.7684 22.6666 16" stroke="#9FA324" stroke-width="2" stroke-linecap="round" stroke-linejoin="round"/>
</svg>
